<svg width="24" height="22" viewBox="0 0 24 22" fill="none" xmlns="http://www.w3.org/2000/svg">
<path d="M24 15.06V13.806C24 13.69 23.888 13.606 23.778 13.638L17.856 15.35C17.824 15.358 17.796 15.376 17.774 15.4C17.1396 16.1008 16.6005 16.571 16.4578 16.6955L16.448 16.704C16.08 17.016 15.624 17.186 15.144 17.186H13V15H14.704C14.748 15 14.79 14.984 14.822 14.956L15.042 14.754C15.136 14.668 15.248 14.564 15.382 14.43C15.3933 14.4187 15.4047 14.4073 15.4162 14.3958C15.4867 14.3256 15.5621 14.2505 15.636 14.168C15.724 14.082 15.81 13.986 15.89 13.892C16.024 13.748 16.152 13.598 16.286 13.44C16.382 13.336 16.47 13.218 16.556 13.1C16.652 12.988 16.746 12.862 16.834 12.742C16.8666 12.6941 16.9013 12.6457 16.9367 12.5963C16.9708 12.5486 17.0057 12.5 17.04 12.45C17.104 12.354 17.168 12.252 17.222 12.156C17.39 11.896 17.532 11.618 17.652 11.34C17.707 11.2211 17.751 11.096 17.7937 10.9743C17.7992 10.9588 17.8046 10.9434 17.81 10.928C17.858 10.786 17.898 10.652 17.928 10.51C18 10.176 18.016 9.84398 17.984 9.51201C17.976 9.40802 17.968 9.30601 17.944 9.20998V9.19402C17.936 9.12601 17.92 9.05001 17.898 8.98001C17.826 8.656 17.714 8.332 17.572 8.014C17.524 7.89599 17.468 7.77599 17.414 7.66598C17.286 7.42802 17.152 7.19001 17 6.96C16.9695 6.91136 16.9357 6.86209 16.9021 6.8129C16.8762 6.77512 16.8503 6.73738 16.826 6.70001C16.7297 6.55141 16.6214 6.40816 16.5163 6.26917C16.4926 6.23791 16.4692 6.20686 16.446 6.17602C16.384 6.09458 16.3161 6.01314 16.2477 5.93116C16.2103 5.8863 16.1728 5.84127 16.136 5.79599C16.032 5.66998 15.93 5.54998 15.826 5.43201C15.454 5.01201 15.064 4.63198 14.716 4.30802C14.652 4.24399 14.582 4.18001 14.51 4.11798C14.24 3.87201 13.994 3.65801 13.788 3.49198C13.726 3.44424 13.6703 3.39721 13.6185 3.35344C13.5835 3.32387 13.5503 3.29579 13.518 3.26998C13.4546 3.22273 13.3996 3.18087 13.3537 3.14587C13.3258 3.1246 13.3012 3.10586 13.28 3.08998C13.264 3.078 13.246 3.06999 13.228 3.06398L13 3V1.11201C13 0.804009 12.876 0.528017 12.678 0.325998C12.48 0.123979 12.204 0 11.9 0C11.292 0 10.8 0.497996 10.8 1.11201V2.38399L10.686 2.35198L10.376 2.26399L10.094 2.186C10.0932 2.186 10.0924 2.18566 10.0914 2.18526C10.09 2.18469 10.0883 2.18401 10.086 2.18401H10.08L7.93999 1.60399C7.84603 1.578 7.766 1.68 7.81402 1.766L8.15602 2.39801C8.17546 2.44665 8.20011 2.4953 8.22543 2.54529C8.24175 2.57751 8.25835 2.61028 8.27403 2.64398C8.33001 2.75602 8.38603 2.87399 8.44002 2.992C8.48799 3.09599 8.53601 3.198 8.59203 3.30999C8.61561 3.36274 8.63964 3.41613 8.66403 3.47028C8.75336 3.66869 8.84729 3.87732 8.94 4.10202L8.94076 4.10382C9.02049 4.29322 9.10024 4.48263 9.17001 4.68C9.36199 5.178 9.54403 5.70999 9.70201 6.25601C9.7413 6.37805 9.7727 6.49618 9.80452 6.61589C9.81806 6.66684 9.83168 6.71807 9.84601 6.77001L9.86799 6.866C9.93201 7.12001 9.98799 7.372 10.028 7.62601C10.06 7.8 10.09 7.96598 10.106 8.134C10.13 8.32398 10.154 8.514 10.162 8.70398C10.178 8.87801 10.186 9.06 10.186 9.23399C10.186 9.678 10.146 10.106 10.052 10.51C10.0462 10.5316 10.0403 10.5535 10.0344 10.5755C10.008 10.6739 9.98067 10.776 9.94802 10.874C9.91837 10.9792 9.87997 11.0844 9.84008 11.1937C9.82613 11.2319 9.812 11.2706 9.798 11.31C9.7957 11.3162 9.79341 11.3223 9.79111 11.3285C9.76139 11.4086 9.73114 11.4902 9.694 11.57C9.49601 12.046 9.24999 12.52 8.99602 12.964C8.624 13.622 8.25002 14.2 7.988 14.572C7.97206 14.5959 7.95652 14.6186 7.94153 14.6406C7.92268 14.6681 7.90473 14.6944 7.88803 14.72C7.80601 14.836 7.89002 15 8.032 15H10.8V17.186H8.00003C7.24802 17.186 6.55203 16.76 6.21599 16.078C6.042 15.736 5.974 15.36 6.01402 14.992C6.02401 14.882 5.94199 14.778 5.82999 14.778H0.17403C0.0779956 14.778 0 14.856 0 14.952V15.068C0 18.676 2.914 21.6 6.51002 21.6H16.656C18.5579 21.6 19.6378 19.8669 20.6993 18.1634C20.9951 17.6886 21.2896 17.216 21.6 16.784C22.158 16.008 23.5 15.392 23.892 15.224C23.956 15.196 24 15.132 24 15.06Z" fill="#0A0A0D"/>
<path d="M1.512 12.202L1.42799 12.334C1.35401 12.448 1.43599 12.6001 1.57598 12.6001H6.78399C6.842 12.6001 6.89599 12.572 6.928 12.524C6.996 12.4201 7.05998 12.312 7.11799 12.202C7.56802 11.446 7.96799 10.628 8.11399 10.024C8.45599 8.55605 7.726 6.19805 6.87998 4.30201C6.82401 4.17604 6.64998 4.16402 6.576 4.28004L1.512 12.202Z" fill="#0A0A0D"/>
</svg>
