<svg width="16" height="16" viewBox="0 0 16 16" fill="none" xmlns="http://www.w3.org/2000/svg">
<path fill-rule="evenodd" clip-rule="evenodd" d="M2.05907 0C0.92188 0 0 0.926467 0 2.06932C0 3.21217 0.92188 4.13864 2.05907 4.13864C3.19627 4.13864 4.11815 3.21217 4.11815 2.06932C4.11815 0.926467 3.19627 0 2.05907 0ZM1.14768 2.06932C1.14768 1.56347 1.55573 1.15339 2.05907 1.15339C2.56242 1.15339 2.97047 1.56347 2.97047 2.06932C2.97047 2.57517 2.56242 2.98525 2.05907 2.98525C1.55573 2.98525 1.14768 2.57517 1.14768 2.06932Z" fill="#5C1BAE" fill-opacity="0.8"/>
<path fill-rule="evenodd" clip-rule="evenodd" d="M10.9705 4.47787C9.63652 4.47787 8.35726 5.01041 7.41406 5.95833C6.47082 6.90627 5.94092 8.19187 5.94092 9.53247V14.7567C5.94092 15.0751 6.19784 15.3333 6.51476 15.3333H9.48519C9.80212 15.3333 10.0591 15.0751 10.0591 14.7567V9.53247C10.0591 9.28954 10.1551 9.05653 10.326 8.8848C10.4969 8.713 10.7287 8.61653 10.9705 8.61653C11.2122 8.61653 11.444 8.713 11.6149 8.8848C11.7859 9.05653 11.8819 9.28954 11.8819 9.53247V14.7567C11.8819 15.0751 12.1388 15.3333 12.4557 15.3333H15.4261C15.7431 15.3333 16 15.0751 16 14.7567V9.53247C16 8.19187 15.4701 6.90627 14.5269 5.95833C13.5837 5.01041 12.3044 4.47787 10.9705 4.47787ZM10.9705 5.63127C9.94092 5.63127 8.95359 6.04229 8.22559 6.77387C7.49759 7.50553 7.08859 8.4978 7.08859 9.53247V14.1799H8.91139V9.53247C8.91139 8.9836 9.12832 8.45727 9.51446 8.0692C9.90059 7.68113 10.4243 7.46313 10.9705 7.46313C11.5165 7.46313 12.0403 7.68113 12.4265 8.0692C12.8126 8.45727 13.0295 8.9836 13.0295 9.53247V14.1799H14.8523V9.53247C14.8523 8.4978 14.4433 7.50553 13.7153 6.77387C12.9873 6.04229 12 5.63127 10.9705 5.63127Z" fill="#5C1BAE" fill-opacity="0.8"/>
<path fill-rule="evenodd" clip-rule="evenodd" d="M0 5.80088C0 5.48238 0.256917 5.22418 0.57384 5.22418H3.54431C3.86123 5.22418 4.11815 5.48238 4.11815 5.80088V14.7567C4.11815 15.0751 3.86123 15.3333 3.54431 15.3333H0.57384C0.256917 15.3333 0 15.0751 0 14.7567V5.80088ZM1.14768 6.3776V14.1799H2.97047V6.3776H1.14768Z" fill="#5C1BAE" fill-opacity="0.8"/>
</svg>
