<svg width="16" height="16" viewBox="0 0 16 16" fill="none" xmlns="http://www.w3.org/2000/svg">
<path d="M8 0C10.176 0 10.448 9.93411e-09 11.296 0.048C12.144 0.08 12.736 0.224 13.248 0.416C13.76 0.624 14.208 0.896 14.656 1.344C15.104 1.776 15.376 2.224 15.584 2.752C15.776 3.264 15.92 3.84 15.952 4.704C15.984 5.552 16 5.824 16 8C16 10.176 15.984 10.448 15.952 11.296C15.92 12.144 15.776 12.72 15.584 13.232C15.376 13.76 15.104 14.208 14.656 14.656C14.208 15.104 13.76 15.376 13.248 15.584C12.736 15.776 12.144 15.904 11.296 15.952C10.448 15.984 10.176 16 8 16C5.824 16 5.552 15.984 4.704 15.952C3.856 15.904 3.264 15.776 2.768 15.584C2.24 15.376 1.792 15.104 1.344 14.656C0.896 14.208 0.624 13.76 0.416 13.232C0.224 12.72 0.096 12.144 0.048 11.296C0.016 10.448 0 10.176 0 8C0 5.824 0.016 5.552 0.048 4.704C0.08 3.84 0.224 3.264 0.416 2.752C0.624 2.224 0.896 1.776 1.344 1.344C1.792 0.896 2.24 0.624 2.768 0.416C3.264 0.224 3.856 0.08 4.704 0.048C5.552 9.93411e-09 5.824 0 8 0ZM7.28 1.44C5.792 1.44 5.504 1.44 4.768 1.488C3.984 1.52 3.568 1.648 3.28 1.76C2.912 1.904 2.64 2.08 2.368 2.352C2.096 2.624 1.904 2.896 1.76 3.28C1.648 3.552 1.52 3.984 1.488 4.768C1.456 5.6 1.44 5.856 1.44 8C1.44 10.128 1.456 10.384 1.488 11.232C1.52 12 1.648 12.432 1.76 12.704C1.904 13.088 2.08 13.344 2.368 13.632C2.656 13.92 2.912 14.08 3.28 14.224C3.568 14.336 3.984 14.464 4.768 14.512C5.616 14.544 5.872 14.56 8 14.56C10.144 14.56 10.384 14.544 11.232 14.512C12.016 14.464 12.432 14.336 12.72 14.224C13.088 14.08 13.36 13.904 13.632 13.632C13.92 13.36 14.096 13.088 14.24 12.704C14.352 12.432 14.48 12 14.512 11.232C14.544 10.384 14.56 10.128 14.56 8C14.56 5.856 14.544 5.6 14.512 4.768C14.48 3.984 14.352 3.552 14.24 3.28C14.096 2.912 13.92 2.64 13.632 2.352C13.36 2.08 13.088 1.904 12.72 1.76C12.432 1.648 12.016 1.52 11.232 1.488C10.384 1.44 10.144 1.44 8 1.44C7.728 1.44 7.504 1.44 7.28 1.44ZM12.272 2.768C12.8 2.768 13.232 3.2 13.232 3.728C13.232 4.256 12.8 4.688 12.272 4.688C11.744 4.688 11.312 4.256 11.312 3.728C11.312 3.2 11.744 2.768 12.272 2.768ZM8 3.888C10.272 3.888 12.112 5.728 12.112 8C12.112 10.272 10.272 12.112 8 12.112C5.728 12.112 3.888 10.272 3.888 8C3.888 5.728 5.728 3.888 8 3.888ZM8 5.328C6.528 5.328 5.328 6.528 5.328 8C5.328 9.472 6.528 10.656 8 10.656C9.472 10.656 10.672 9.472 10.672 8C10.672 6.528 9.472 5.328 8 5.328Z" fill="#0A0A0D"/>
</svg>
