<svg width="12" height="16" viewBox="0 0 12 16" fill="none" xmlns="http://www.w3.org/2000/svg">
<path fill-rule="evenodd" clip-rule="evenodd" d="M1.23099 3.07692C1.23099 2.06901 2.06833 1.23077 3.12445 1.23077H5.01761V4.92307H3.12445C2.06833 4.92307 1.23099 4.08483 1.23099 3.07692ZM3.12445 0H5.01761H6.24861H8.14181C9.85548 0 11.2661 1.3673 11.2661 3.07692C11.2661 4.08771 10.773 4.97885 10.0157 5.53845C10.773 6.09809 11.2661 6.9892 11.2661 8C11.2661 9.7096 9.85548 11.0769 8.14181 11.0769C7.43261 11.0769 6.77528 10.8427 6.24841 10.447V11.0769V12.9231C6.24841 14.6327 4.83788 16 3.12423 16C1.41057 16 0 14.6327 0 12.9231C0 11.9123 0.493073 11.0211 1.25034 10.4615C0.493073 9.90193 0 9.0108 0 8C0 6.98913 0.49312 6.098 1.25044 5.5384C0.493246 4.97875 0.000219981 4.08766 0.000219981 3.07692C0.000219981 1.3673 1.41078 0 3.12445 0ZM5.01768 7.98593C5.01768 7.9906 5.01761 7.99527 5.01761 8C5.01761 8.00467 5.01768 8.0094 5.01768 8.01407V9.84613H3.12423C2.06811 9.84613 1.23077 9.00793 1.23077 8C1.23077 6.99207 2.06811 6.15387 3.12423 6.15387H5.01768V7.98593ZM6.24841 8.01073C6.25435 9.01387 7.08955 9.84613 8.14181 9.84613C9.19795 9.84613 10.0353 9.00793 10.0353 8C10.0353 6.99207 9.19795 6.15387 8.14181 6.15387C7.08955 6.15387 6.25435 6.98613 6.24841 7.98927V8.01073ZM8.14181 1.23077H6.24861V4.92307H8.14181C9.19795 4.92307 10.0353 4.08483 10.0353 3.07692C10.0353 2.06901 9.19795 1.23077 8.14181 1.23077ZM3.12423 11.0769C2.06811 11.0769 1.23077 11.9151 1.23077 12.9231C1.23077 13.931 2.06811 14.7693 3.12423 14.7693C4.18032 14.7693 5.01768 13.931 5.01768 12.9231V11.0769H3.12423Z" fill="#0A0A0D"/>
</svg>
