<svg width="16" height="13" viewBox="0 0 16 13" fill="none" xmlns="http://www.w3.org/2000/svg">
<path fill-rule="evenodd" clip-rule="evenodd" d="M9.66647 4.50065L7.27473 12.2503C7.2022 12.4854 6.99193 12.6508 6.747 12.6656C6.50201 12.6804 6.27353 12.5415 6.17339 12.3168L2.79007 4.72733V9.78467L4.27789 11.713C4.41549 11.8913 4.43992 12.1326 4.34086 12.3351C4.2418 12.5375 4.03651 12.6658 3.81163 12.6658H0.589507C0.364629 12.6658 0.159341 12.5375 0.0602814 12.3351C-0.0387786 12.1326 -0.014352 11.8913 0.123252 11.713L1.61107 9.78467V2.67844C1.61107 2.67007 1.61124 2.66175 1.61159 2.65347L0.19575 1.37915C0.0140019 1.21557 -0.0483307 0.956553 0.0390164 0.72786C0.126363 0.499173 0.345301 0.348167 0.589527 0.348167H5.07557C5.2599 0.34056 5.44031 0.42058 5.55822 0.566733C5.59327 0.609973 5.62235 0.65828 5.64419 0.710393L8.01893 5.84007L9.68893 0.42894C9.70233 0.38168 9.72147 0.33684 9.74553 0.295213C9.77727 0.240013 9.81733 0.19126 9.8634 0.150087C9.96767 0.0567401 10.1052 0 10.2559 0H15.4113C15.6458 0 15.858 0.139313 15.9517 0.3548C16.0455 0.570293 16.0029 0.820987 15.8434 0.99328L14.3898 2.56323V10.1033L15.8434 11.6732C16.0029 11.8455 16.0455 12.0962 15.9517 12.3117C15.858 12.5272 15.6458 12.6665 15.4113 12.6665H8.96713C8.74433 12.6665 8.54053 12.5405 8.44047 12.341C8.34033 12.1414 8.361 11.9023 8.49387 11.7229L9.66647 10.1399V4.50065ZM10.8455 10.3353V1.18221H14.0597L13.3683 1.92897C13.2671 2.0383 13.2108 2.18197 13.2108 2.33115V10.3353C13.2108 10.4845 13.2671 10.6282 13.3683 10.7375L14.0597 11.4843H10.1393L10.7292 10.6878C10.8047 10.5859 10.8455 10.4623 10.8455 10.3353ZM7.46527 7.45193C7.47593 7.475 7.48793 7.49707 7.50107 7.518L6.61109 10.4017L3.06099 2.43809C3.02727 2.36245 2.97807 2.29477 2.91658 2.23943L2.12879 1.53037H4.72395L7.46527 7.45193ZM1.79091 11.4836L2.20057 10.9526L2.61023 11.4836H1.79091Z" fill="#8C007E" fill-opacity="0.8"/>
</svg>
