<svg width="16" height="16" viewBox="0 0 16 16" fill="none" xmlns="http://www.w3.org/2000/svg">
<path d="M8 0C8.36819 0 8.66667 0.298477 8.66667 0.666667V2C8.66667 2.36819 8.36819 2.66667 8 2.66667C7.63181 2.66667 7.33333 2.36819 7.33333 2V0.666667C7.33333 0.298477 7.63181 0 8 0Z" fill="#0A0A0D"/>
<path fill-rule="evenodd" clip-rule="evenodd" d="M4 8C4 5.79086 5.79086 4 8 4C10.2091 4 12 5.79086 12 8C12 10.2091 10.2091 12 8 12C5.79086 12 4 10.2091 4 8ZM8 5.33333C6.52724 5.33333 5.33333 6.52724 5.33333 8C5.33333 9.47276 6.52724 10.6667 8 10.6667C9.47276 10.6667 10.6667 9.47276 10.6667 8C10.6667 6.52724 9.47276 5.33333 8 5.33333Z" fill="#0A0A0D"/>
<path d="M8.66667 14C8.66667 13.6318 8.36819 13.3333 8 13.3333C7.63181 13.3333 7.33333 13.6318 7.33333 14V15.3333C7.33333 15.7015 7.63181 16 8 16C8.36819 16 8.66667 15.7015 8.66667 15.3333V14Z" fill="#0A0A0D"/>
<path d="M2.34193 2.34193C2.60228 2.08158 3.02439 2.08158 3.28474 2.34193L4.23141 3.2886C4.49176 3.54895 4.49176 3.97106 4.23141 4.23141C3.97106 4.49176 3.54895 4.49176 3.2886 4.23141L2.34193 3.28474C2.08158 3.02439 2.08158 2.60228 2.34193 2.34193Z" fill="#0A0A0D"/>
<path d="M12.7114 11.7686C12.4511 11.5082 12.0289 11.5082 11.7686 11.7686C11.5082 12.0289 11.5082 12.451 11.7686 12.7114L12.7153 13.6581C12.9756 13.9184 13.3977 13.9184 13.6581 13.6581C13.9184 13.3977 13.9184 12.9756 13.6581 12.7153L12.7114 11.7686Z" fill="#0A0A0D"/>
<path d="M0 8C0 7.63181 0.298477 7.33333 0.666667 7.33333H2C2.36819 7.33333 2.66667 7.63181 2.66667 8C2.66667 8.36819 2.36819 8.66667 2 8.66667H0.666667C0.298477 8.66667 0 8.36819 0 8Z" fill="#0A0A0D"/>
<path d="M14 7.33333C13.6318 7.33333 13.3333 7.63181 13.3333 8C13.3333 8.36819 13.6318 8.66667 14 8.66667H15.3333C15.7015 8.66667 16 8.36819 16 8C16 7.63181 15.7015 7.33333 15.3333 7.33333H14Z" fill="#0A0A0D"/>
<path d="M4.23141 11.7686C4.49176 12.0289 4.49176 12.451 4.23141 12.7114L3.28474 13.6581C3.02439 13.9184 2.60228 13.9184 2.34193 13.6581C2.08158 13.3977 2.08158 12.9756 2.34193 12.7153L3.2886 11.7686C3.54895 11.5082 3.97106 11.5082 4.23141 11.7686Z" fill="#0A0A0D"/>
<path d="M13.6581 3.28474C13.9184 3.02439 13.9184 2.60228 13.6581 2.34193C13.3977 2.08158 12.9756 2.08158 12.7153 2.34193L11.7686 3.2886C11.5082 3.54895 11.5082 3.97106 11.7686 4.23141C12.0289 4.49176 12.4511 4.49176 12.7114 4.23141L13.6581 3.28474Z" fill="#0A0A0D"/>
</svg>
