<svg width="21" height="24" viewBox="0 0 21 24" fill="none" xmlns="http://www.w3.org/2000/svg">
<path d="M9.72621 0.462673C10.0626 -0.154224 10.9375 -0.154224 11.2738 0.462673C11.9843 1.76577 13.0664 3.82357 14.0075 5.91849C12.782 6.0428 11.5677 6.20768 10.5 6.42637C9.43236 6.20768 8.21799 6.0428 6.99256 5.91849C7.93365 3.82358 9.01572 1.76577 9.72621 0.462673Z" fill="#0A0A0D"/>
<path fill-rule="evenodd" clip-rule="evenodd" d="M5.67822 9.21314C6.02285 8.17822 6.4874 7.04301 6.99256 5.91849C4.70967 5.6869 2.38839 5.59609 0.905813 5.56048C0.203953 5.54362 -0.233516 6.30214 0.131997 6.90218C0.904085 8.16968 2.14328 10.1367 3.48507 12C2.14328 13.8633 0.904085 15.8303 0.131997 17.0978C-0.233516 17.6979 0.203954 18.4564 0.905813 18.4395C2.38839 18.4039 4.70967 18.3131 6.99256 18.0815C7.93365 20.1764 9.01572 22.2342 9.72621 23.5373C10.0626 24.1542 10.9375 24.1542 11.2738 23.5373C11.9843 22.2342 13.0664 20.1764 14.0075 18.0815C16.2904 18.3131 18.6116 18.4039 20.0942 18.4395C20.796 18.4564 21.2335 17.6979 20.868 17.0978C20.0959 15.8303 18.8567 13.8633 17.5149 12C18.8567 10.1367 20.0959 8.16968 20.868 6.90218C21.2335 6.30214 20.796 5.54363 20.0942 5.56048C18.6116 5.59609 16.2904 5.6869 14.0075 5.91849C14.5127 7.04304 14.9772 8.17828 15.3219 9.21322C15.0539 8.91068 14.7896 8.62932 14.5318 8.37545C13.7742 7.53144 12.7559 6.92663 11.6038 6.68796C11.2598 6.59317 10.8897 6.50618 10.5 6.42637C10.1103 6.50619 9.74016 6.59317 9.39616 6.68797C8.24411 6.92664 7.22587 7.53141 6.46824 8.37536C6.2105 8.62923 5.9462 8.9106 5.67822 9.21314ZM5.35419 10.2948C5.44388 9.95102 5.55316 9.58868 5.67822 9.21314C4.95519 10.0294 4.20535 10.9998 3.48507 12C4.20535 13.0002 4.95519 13.9706 5.67821 14.7868C6.02285 15.8218 6.48739 16.957 6.99256 18.0815C8.21799 17.9572 9.43236 17.7923 10.5 17.5736C11.5677 17.7923 12.782 17.9572 14.0075 18.0815C14.5127 16.957 14.9772 15.8217 15.3219 14.7868C16.0449 13.9705 16.7947 13.0002 17.5149 12C16.7947 10.9998 16.0449 10.0295 15.3219 9.21322C15.447 9.5889 15.5563 9.95137 15.646 10.2953C15.8229 10.8309 15.9188 11.4035 15.919 11.9984C15.919 11.999 15.919 11.9995 15.919 12C15.919 12.0005 15.919 12.001 15.919 12.0015C15.9188 12.5965 15.8229 13.1691 15.646 13.7047C15.5563 14.0486 15.447 14.4111 15.3219 14.7868C15.0539 15.0893 14.7896 15.3706 14.5319 15.6245C13.7742 16.4686 12.7559 17.0734 11.6037 17.3121C11.2598 17.4068 10.8896 17.4938 10.5 17.5736C10.1103 17.4938 9.74023 17.4068 9.39626 17.312C8.24415 17.0734 7.22586 16.4686 6.4682 15.6246C6.21047 15.3707 5.94618 15.0894 5.67821 14.7868C5.55315 14.4113 5.44388 14.049 5.35419 13.7052C5.17698 13.169 5.08106 12.5957 5.08106 12C5.08106 11.4043 5.17698 10.831 5.35419 10.2948Z" fill="#0A0A0D"/>
</svg>
