<svg width="16" height="14" viewBox="0 0 16 14" fill="none" xmlns="http://www.w3.org/2000/svg">
<path fill-rule="evenodd" clip-rule="evenodd" d="M9.70707 0.253486C10.4049 -0.0280135 11.1695 -0.0765934 11.8956 0.11544C12.4815 0.270373 13.0159 0.574846 13.4544 0.995506C14.0099 0.781673 14.5375 0.490407 15.023 0.128386C15.2286 -0.0248868 15.508 -0.0336002 15.7227 0.106573C15.9375 0.24674 16.0419 0.506007 15.9843 0.755893C15.7555 1.74936 15.2922 2.66711 14.6365 3.42379C14.6495 3.5525 14.6562 3.68186 14.6566 3.81138V3.81329C14.6566 8.09253 12.7102 11.2373 9.89507 12.821C7.0898 14.3992 3.49906 14.3821 0.301907 12.5048C0.0598547 12.3627 -0.0543381 12.074 0.0249812 11.8047C0.104301 11.5355 0.356757 11.3548 0.637205 11.3666C1.83532 11.4169 3.0227 11.1489 4.09311 10.5919C3.00499 9.91667 2.23694 9.105 1.71374 8.23187C1.05135 7.1264 0.801507 5.95647 0.756267 4.90446C0.7111 3.85423 0.868973 2.9069 1.0356 2.22591C1.11924 1.88408 1.20598 1.60575 1.27269 1.41073C1.30905 1.30445 1.34739 1.19881 1.38985 1.09482L1.39066 1.09287C1.47699 0.886753 1.67481 0.740813 1.89737 0.71978C2.12169 0.698587 2.33948 0.802473 2.46417 0.99014C3.08816 1.92926 3.91977 2.6871 4.88245 3.19924C5.6667 3.61646 6.51909 3.86066 7.38853 3.92087C7.38853 3.12289 7.56973 2.35249 8.00473 1.67517C8.41707 1.03315 9.0098 0.534773 9.70707 0.253486ZM2.19627 2.63097C2.05917 3.22453 1.94165 4.00539 1.97806 4.85191C2.01678 5.7522 2.22872 6.71207 2.76275 7.60327C3.29372 8.4894 4.1632 9.3418 5.57327 10.0042C5.76958 10.0964 5.90235 10.2857 5.92219 10.5017C5.94203 10.7177 5.84596 10.928 5.66973 11.0545C4.83037 11.6567 3.89931 12.0908 2.92317 12.3419C5.1721 13.0438 7.44867 12.7941 9.29547 11.7552C11.6856 10.4105 13.4333 7.6988 13.4337 3.8144C13.4331 3.6527 13.4184 3.49149 13.3897 3.33287C13.3548 3.14003 13.4145 2.94215 13.5502 2.80073C13.7748 2.56659 13.9754 2.30923 14.1493 2.03311C13.9253 2.12868 13.697 2.21359 13.4649 2.28746C13.2266 2.36329 12.9661 2.28641 12.8073 2.09331C12.4816 1.69757 12.0532 1.42209 11.5829 1.29772C11.1131 1.17346 10.6187 1.20444 10.1646 1.3876C9.71007 1.57097 9.3138 1.89994 9.03367 2.33605C8.7534 2.77251 8.60467 3.29299 8.6114 3.82683L8.61153 3.83459L8.61147 4.54452C8.61147 4.87569 8.3478 5.14668 8.01673 5.15575C6.72927 5.19104 5.45508 4.88909 4.30808 4.27889C3.51658 3.85781 2.80333 3.2994 2.19627 2.63097Z" fill="#0A0A0D"/>
</svg>
