<svg width="24" height="8" viewBox="0 0 24 8" fill="none" xmlns="http://www.w3.org/2000/svg">
<path d="M15.4458 3.90482C15.4458 6.06139 13.6937 7.80964 11.5323 7.80964C9.371 7.80964 7.61889 6.06139 7.61889 3.90482C7.61889 1.74825 9.371 0 11.5323 0C13.6937 0 15.4458 1.74825 15.4458 3.90482Z" fill="#0A0A0D"/>
<path d="M15.9243 0.596806C15.9243 0.399042 16.085 0.238723 16.2832 0.238723H22.9139C23.1121 0.238723 23.2727 0.399042 23.2727 0.596807V7.19578C23.2727 7.39355 23.1121 7.55387 22.9139 7.55387H16.2832C16.085 7.55387 15.9243 7.39355 15.9243 7.19578V0.596806Z" fill="#0A0A0D"/>
<path d="M4.09663 0.301321C4.05032 0.328647 4.01235 0.394275 3.9364 0.525531L0.114497 7.13065C0.0385489 7.2619 0.000574674 7.32753 1.12959e-05 7.38121C-0.000772012 7.45584 0.0392331 7.52498 0.104402 7.56162C0.151273 7.58797 0.227221 7.58797 0.379118 7.58797H8.02292C8.17482 7.58797 8.25077 7.58797 8.29764 7.56162C8.36281 7.52498 8.40281 7.45584 8.40203 7.38121C8.40146 7.32753 8.36349 7.2619 8.28754 7.13065L4.46564 0.525531C4.38969 0.394275 4.35172 0.328647 4.30541 0.301321C4.24102 0.263328 4.16101 0.263328 4.09663 0.301321Z" fill="#0A0A0D"/>
</svg>
